<svg id="visual" viewBox="0 0 960 540" width="960" height="540" xmlns="http://www.w3.org/2000/svg" xmlns:xlink="http://www.w3.org/1999/xlink" version="1.1"><path d="M0 39L960 39L960 0L0 0Z" fill="#026779"></path><path d="M0 147L960 141L960 37L0 37Z" fill="#00667a"></path><path d="M0 168L960 163L960 139L0 145Z" fill="#00657c"></path><path d="M0 228L960 228L960 161L0 166Z" fill="#00637d"></path><path d="M0 249L960 249L960 226L0 226Z" fill="#00627e"></path><path d="M0 271L960 276L960 247L0 247Z" fill="#00617f"></path><path d="M0 298L960 303L960 274L0 269Z" fill="#005f7f"></path><path d="M0 320L960 325L960 301L0 296Z" fill="#005e80"></path><path d="M0 347L960 357L960 323L0 318Z" fill="#005d81"></path><path d="M0 395L960 406L960 355L0 345Z" fill="#005b81"></path><path d="M0 428L960 438L960 404L0 393Z" fill="#005a82"></path><path d="M0 541L960 541L960 436L0 426Z" fill="#035882"></path></svg>
