<svg id="visual" viewBox="0 0 900 600" width="900" height="600" xmlns="http://www.w3.org/2000/svg" xmlns:xlink="http://www.w3.org/1999/xlink" version="1.1"><path d="M0 85L25 87C50 89 100 93 150 90C200 87 250 77 300 76C350 75 400 83 450 90C500 97 550 103 600 105C650 107 700 105 750 96C800 87 850 71 875 63L900 55L900 0L875 0C850 0 800 0 750 0C700 0 650 0 600 0C550 0 500 0 450 0C400 0 350 0 300 0C250 0 200 0 150 0C100 0 50 0 25 0L0 0Z" fill="#76a5ec"></path><path d="M0 187L25 189C50 191 100 195 150 191C200 187 250 175 300 177C350 179 400 195 450 201C500 207 550 203 600 193C650 183 700 167 750 170C800 173 850 195 875 206L900 217L900 53L875 61C850 69 800 85 750 94C700 103 650 105 600 103C550 101 500 95 450 88C400 81 350 73 300 74C250 75 200 85 150 88C100 91 50 87 25 85L0 83Z" fill="#5a8ade"></path><path d="M0 271L25 264C50 257 100 243 150 233C200 223 250 217 300 228C350 239 400 267 450 279C500 291 550 287 600 273C650 259 700 235 750 232C800 229 850 247 875 256L900 265L900 215L875 204C850 193 800 171 750 168C700 165 650 181 600 191C550 201 500 205 450 199C400 193 350 177 300 175C250 173 200 185 150 189C100 193 50 189 25 187L0 185Z" fill="#416fcf"></path><path d="M0 379L25 394C50 409 100 439 150 450C200 461 250 453 300 452C350 451 400 457 450 447C500 437 550 411 600 404C650 397 700 409 750 421C800 433 850 445 875 451L900 457L900 263L875 254C850 245 800 227 750 230C700 233 650 257 600 271C550 285 500 289 450 277C400 265 350 237 300 226C250 215 200 221 150 231C100 241 50 255 25 262L0 269Z" fill="#2a55bf"></path><path d="M0 463L25 471C50 479 100 495 150 499C200 503 250 495 300 497C350 499 400 511 450 500C500 489 550 455 600 452C650 449 700 477 750 488C800 499 850 493 875 490L900 487L900 455L875 449C850 443 800 431 750 419C700 407 650 395 600 402C550 409 500 435 450 445C400 455 350 449 300 450C250 451 200 459 150 448C100 437 50 407 25 392L0 377Z" fill="#1439ac"></path><path d="M0 601L25 601C50 601 100 601 150 601C200 601 250 601 300 601C350 601 400 601 450 601C500 601 550 601 600 601C650 601 700 601 750 601C800 601 850 601 875 601L900 601L900 485L875 488C850 491 800 497 750 486C700 475 650 447 600 450C550 453 500 487 450 498C400 509 350 497 300 495C250 493 200 501 150 497C100 493 50 477 25 469L0 461Z" fill="#001b98"></path></svg>
